# xmcd
#
# Track frame offsets:
#	150
#	40987
#	85915
#	124305
#	173322
#	216592
#
# Disc length: 3683 seconds
#
# Revision: 1
# Processed by: cddbd v1.5.1PL0 Copyright (c) Steve Scherf et al.
# Submitted via: CDex 1.50Beta5
#
DISCID=4e0e6106
DTITLE=季節を抱きしめて - 季節を抱きしめて ザ・ドラマCd
DYEAR=1900
DGENRE=Soundtrack
TTITLE0=Act.1 迷惑との遭遇
TTITLE1=Act.2 話しが違う!!
TTITLE2=Act.3 お金のなる木はないのかな
TTITLE3=Act.4 故郷は桜の香り……
TTITLE4=Act.5 戻ってはきたけれど
TTITLE5=Act.6 桜が咲いた……
EXTD=
EXTT0=
EXTT1=
EXTT2=
EXTT3=
EXTT4=
EXTT5=
PLAYORDER=
